<mxfile host="app.diagrams.net" modified="2022-03-30T17:40:54.613Z" agent="5.0 (Windows NT 10.0; Win64; x64) AppleWebKit/537.36 (KHTML, like Gecko) Chrome/99.0.4844.82 Safari/537.36" etag="ZCduuxtySfKg6sccUPur" version="17.2.4" type="github" pages="2">
  <diagram id="qAAxvI2N66q2RNYJOrqI" name="Page-1">
    <mxGraphModel dx="782" dy="446" grid="1" gridSize="10" guides="1" tooltips="1" connect="1" arrows="1" fold="1" page="1" pageScale="1" pageWidth="827" pageHeight="1169" math="0" shadow="0">
      <root>
        <mxCell id="0" />
        <mxCell id="1" parent="0" />
        <mxCell id="mwRrv51llNrriN64F0ap-2" value="AWS Cloud" style="points=[[0,0],[0.25,0],[0.5,0],[0.75,0],[1,0],[1,0.25],[1,0.5],[1,0.75],[1,1],[0.75,1],[0.5,1],[0.25,1],[0,1],[0,0.75],[0,0.5],[0,0.25]];outlineConnect=0;gradientColor=none;html=1;whiteSpace=wrap;fontSize=12;fontStyle=0;container=1;pointerEvents=0;collapsible=0;recursiveResize=0;shape=mxgraph.aws4.group;grIcon=mxgraph.aws4.group_aws_cloud_alt;strokeColor=#232F3E;fillColor=none;verticalAlign=top;align=left;spacingLeft=30;fontColor=#232F3E;dashed=0;" parent="1" vertex="1">
          <mxGeometry x="193" y="70" width="747" height="470" as="geometry" />
        </mxCell>
        <mxCell id="mwRrv51llNrriN64F0ap-4" value="eu-west-1" style="points=[[0,0],[0.25,0],[0.5,0],[0.75,0],[1,0],[1,0.25],[1,0.5],[1,0.75],[1,1],[0.75,1],[0.5,1],[0.25,1],[0,1],[0,0.75],[0,0.5],[0,0.25]];outlineConnect=0;gradientColor=none;html=1;whiteSpace=wrap;fontSize=12;fontStyle=0;container=1;pointerEvents=0;collapsible=0;recursiveResize=0;shape=mxgraph.aws4.group;grIcon=mxgraph.aws4.group_region;strokeColor=#147EBA;fillColor=none;verticalAlign=top;align=left;spacingLeft=30;fontColor=#147EBA;dashed=1;" parent="mwRrv51llNrriN64F0ap-2" vertex="1">
          <mxGeometry x="87" y="54" width="610" height="370" as="geometry" />
        </mxCell>
        <mxCell id="mwRrv51llNrriN64F0ap-6" value="cognito" style="sketch=0;points=[[0,0,0],[0.25,0,0],[0.5,0,0],[0.75,0,0],[1,0,0],[0,1,0],[0.25,1,0],[0.5,1,0],[0.75,1,0],[1,1,0],[0,0.25,0],[0,0.5,0],[0,0.75,0],[1,0.25,0],[1,0.5,0],[1,0.75,0]];outlineConnect=0;fontColor=#232F3E;gradientColor=#F54749;gradientDirection=north;fillColor=#C7131F;strokeColor=#ffffff;dashed=0;verticalLabelPosition=bottom;verticalAlign=top;align=center;html=1;fontSize=12;fontStyle=0;aspect=fixed;shape=mxgraph.aws4.resourceIcon;resIcon=mxgraph.aws4.cognito;" parent="mwRrv51llNrriN64F0ap-4" vertex="1">
          <mxGeometry x="57" y="306" width="40" height="40" as="geometry" />
        </mxCell>
        <mxCell id="mwRrv51llNrriN64F0ap-25" style="edgeStyle=orthogonalEdgeStyle;rounded=0;orthogonalLoop=1;jettySize=auto;html=1;entryX=0;entryY=0.5;entryDx=0;entryDy=0;entryPerimeter=0;" parent="mwRrv51llNrriN64F0ap-4" source="mwRrv51llNrriN64F0ap-7" target="mwRrv51llNrriN64F0ap-18" edge="1">
          <mxGeometry relative="1" as="geometry" />
        </mxCell>
        <mxCell id="mwRrv51llNrriN64F0ap-7" value="api gateway" style="sketch=0;points=[[0,0,0],[0.25,0,0],[0.5,0,0],[0.75,0,0],[1,0,0],[0,1,0],[0.25,1,0],[0.5,1,0],[0.75,1,0],[1,1,0],[0,0.25,0],[0,0.5,0],[0,0.75,0],[1,0.25,0],[1,0.5,0],[1,0.75,0]];outlineConnect=0;fontColor=#232F3E;gradientColor=#945DF2;gradientDirection=north;fillColor=#5A30B5;strokeColor=#ffffff;dashed=0;verticalLabelPosition=bottom;verticalAlign=top;align=center;html=1;fontSize=12;fontStyle=0;aspect=fixed;shape=mxgraph.aws4.resourceIcon;resIcon=mxgraph.aws4.api_gateway;" parent="mwRrv51llNrriN64F0ap-4" vertex="1">
          <mxGeometry x="71.5" y="155" width="39.5" height="39.5" as="geometry" />
        </mxCell>
        <mxCell id="mwRrv51llNrriN64F0ap-27" style="edgeStyle=orthogonalEdgeStyle;rounded=0;orthogonalLoop=1;jettySize=auto;html=1;entryX=0;entryY=0.5;entryDx=0;entryDy=0;entryPerimeter=0;" parent="mwRrv51llNrriN64F0ap-4" source="mwRrv51llNrriN64F0ap-10" target="mwRrv51llNrriN64F0ap-17" edge="1">
          <mxGeometry relative="1" as="geometry" />
        </mxCell>
        <mxCell id="mwRrv51llNrriN64F0ap-10" value="appsync" style="sketch=0;points=[[0,0,0],[0.25,0,0],[0.5,0,0],[0.75,0,0],[1,0,0],[0,1,0],[0.25,1,0],[0.5,1,0],[0.75,1,0],[1,1,0],[0,0.25,0],[0,0.5,0],[0,0.75,0],[1,0.25,0],[1,0.5,0],[1,0.75,0]];outlineConnect=0;fontColor=#232F3E;gradientColor=#FF4F8B;gradientDirection=north;fillColor=#BC1356;strokeColor=#ffffff;dashed=0;verticalLabelPosition=bottom;verticalAlign=top;align=center;html=1;fontSize=12;fontStyle=0;aspect=fixed;shape=mxgraph.aws4.resourceIcon;resIcon=mxgraph.aws4.appsync;" parent="mwRrv51llNrriN64F0ap-4" vertex="1">
          <mxGeometry x="71.54" y="220" width="40" height="40" as="geometry" />
        </mxCell>
        <mxCell id="mwRrv51llNrriN64F0ap-5" value="static files &lt;br&gt;s3 bucket" style="sketch=0;outlineConnect=0;fontColor=#232F3E;gradientColor=none;fillColor=#3F8624;strokeColor=none;dashed=0;verticalLabelPosition=bottom;verticalAlign=top;align=center;html=1;fontSize=12;fontStyle=0;aspect=fixed;pointerEvents=1;shape=mxgraph.aws4.bucket_with_objects;" parent="mwRrv51llNrriN64F0ap-4" vertex="1">
          <mxGeometry x="69.54" y="74" width="38.46" height="40" as="geometry" />
        </mxCell>
        <mxCell id="mwRrv51llNrriN64F0ap-17" value="lambda" style="sketch=0;points=[[0,0,0],[0.25,0,0],[0.5,0,0],[0.75,0,0],[1,0,0],[0,1,0],[0.25,1,0],[0.5,1,0],[0.75,1,0],[1,1,0],[0,0.25,0],[0,0.5,0],[0,0.75,0],[1,0.25,0],[1,0.5,0],[1,0.75,0]];outlineConnect=0;fontColor=#232F3E;gradientColor=#F78E04;gradientDirection=north;fillColor=#D05C17;strokeColor=#ffffff;dashed=0;verticalLabelPosition=bottom;verticalAlign=top;align=center;html=1;fontSize=12;fontStyle=0;aspect=fixed;shape=mxgraph.aws4.resourceIcon;resIcon=mxgraph.aws4.lambda;" parent="mwRrv51llNrriN64F0ap-4" vertex="1">
          <mxGeometry x="187" y="220" width="40" height="40" as="geometry" />
        </mxCell>
        <mxCell id="mwRrv51llNrriN64F0ap-18" value="lambda" style="sketch=0;points=[[0,0,0],[0.25,0,0],[0.5,0,0],[0.75,0,0],[1,0,0],[0,1,0],[0.25,1,0],[0.5,1,0],[0.75,1,0],[1,1,0],[0,0.25,0],[0,0.5,0],[0,0.75,0],[1,0.25,0],[1,0.5,0],[1,0.75,0]];outlineConnect=0;fontColor=#232F3E;gradientColor=#F78E04;gradientDirection=north;fillColor=#D05C17;strokeColor=#ffffff;dashed=0;verticalLabelPosition=bottom;verticalAlign=top;align=center;html=1;fontSize=12;fontStyle=0;aspect=fixed;shape=mxgraph.aws4.resourceIcon;resIcon=mxgraph.aws4.lambda;" parent="mwRrv51llNrriN64F0ap-4" vertex="1">
          <mxGeometry x="187" y="130" width="40" height="40" as="geometry" />
        </mxCell>
        <mxCell id="mwRrv51llNrriN64F0ap-29" style="edgeStyle=orthogonalEdgeStyle;rounded=0;orthogonalLoop=1;jettySize=auto;html=1;entryX=0;entryY=0.5;entryDx=0;entryDy=0;entryPerimeter=0;" parent="mwRrv51llNrriN64F0ap-4" source="mwRrv51llNrriN64F0ap-19" target="mwRrv51llNrriN64F0ap-9" edge="1">
          <mxGeometry relative="1" as="geometry" />
        </mxCell>
        <mxCell id="mwRrv51llNrriN64F0ap-19" value="" style="sketch=0;points=[[0,0,0],[0.25,0,0],[0.5,0,0],[0.75,0,0],[1,0,0],[0,1,0],[0.25,1,0],[0.5,1,0],[0.75,1,0],[1,1,0],[0,0.25,0],[0,0.5,0],[0,0.75,0],[1,0.25,0],[1,0.5,0],[1,0.75,0]];outlineConnect=0;fontColor=#232F3E;gradientColor=#F78E04;gradientDirection=north;fillColor=#D05C17;strokeColor=#ffffff;dashed=0;verticalLabelPosition=bottom;verticalAlign=top;align=center;html=1;fontSize=12;fontStyle=0;aspect=fixed;shape=mxgraph.aws4.resourceIcon;resIcon=mxgraph.aws4.lambda;" parent="mwRrv51llNrriN64F0ap-4" vertex="1">
          <mxGeometry x="207" y="120" width="40" height="40" as="geometry" />
        </mxCell>
        <mxCell id="mwRrv51llNrriN64F0ap-30" style="edgeStyle=orthogonalEdgeStyle;rounded=0;orthogonalLoop=1;jettySize=auto;html=1;" parent="mwRrv51llNrriN64F0ap-4" source="mwRrv51llNrriN64F0ap-20" target="mwRrv51llNrriN64F0ap-28" edge="1">
          <mxGeometry relative="1" as="geometry" />
        </mxCell>
        <mxCell id="mwRrv51llNrriN64F0ap-20" value="" style="sketch=0;points=[[0,0,0],[0.25,0,0],[0.5,0,0],[0.75,0,0],[1,0,0],[0,1,0],[0.25,1,0],[0.5,1,0],[0.75,1,0],[1,1,0],[0,0.25,0],[0,0.5,0],[0,0.75,0],[1,0.25,0],[1,0.5,0],[1,0.75,0]];outlineConnect=0;fontColor=#232F3E;gradientColor=#F78E04;gradientDirection=north;fillColor=#D05C17;strokeColor=#ffffff;dashed=0;verticalLabelPosition=bottom;verticalAlign=top;align=center;html=1;fontSize=12;fontStyle=0;aspect=fixed;shape=mxgraph.aws4.resourceIcon;resIcon=mxgraph.aws4.lambda;" parent="mwRrv51llNrriN64F0ap-4" vertex="1">
          <mxGeometry x="207" y="210" width="40" height="40" as="geometry" />
        </mxCell>
        <mxCell id="mwRrv51llNrriN64F0ap-9" value="dynamodb table" style="sketch=0;points=[[0,0,0],[0.25,0,0],[0.5,0,0],[0.75,0,0],[1,0,0],[0,1,0],[0.25,1,0],[0.5,1,0],[0.75,1,0],[1,1,0],[0,0.25,0],[0,0.5,0],[0,0.75,0],[1,0.25,0],[1,0.5,0],[1,0.75,0]];outlineConnect=0;fontColor=#232F3E;gradientColor=#4D72F3;gradientDirection=north;fillColor=#3334B9;strokeColor=#ffffff;dashed=0;verticalLabelPosition=bottom;verticalAlign=top;align=center;html=1;fontSize=12;fontStyle=0;aspect=fixed;shape=mxgraph.aws4.resourceIcon;resIcon=mxgraph.aws4.dynamodb;" parent="mwRrv51llNrriN64F0ap-4" vertex="1">
          <mxGeometry x="367" y="118" width="43" height="43" as="geometry" />
        </mxCell>
        <mxCell id="mwRrv51llNrriN64F0ap-28" value="dynamodb table" style="sketch=0;points=[[0,0,0],[0.25,0,0],[0.5,0,0],[0.75,0,0],[1,0,0],[0,1,0],[0.25,1,0],[0.5,1,0],[0.75,1,0],[1,1,0],[0,0.25,0],[0,0.5,0],[0,0.75,0],[1,0.25,0],[1,0.5,0],[1,0.75,0]];outlineConnect=0;fontColor=#232F3E;gradientColor=#4D72F3;gradientDirection=north;fillColor=#3334B9;strokeColor=#ffffff;dashed=0;verticalLabelPosition=bottom;verticalAlign=top;align=center;html=1;fontSize=12;fontStyle=0;aspect=fixed;shape=mxgraph.aws4.resourceIcon;resIcon=mxgraph.aws4.dynamodb;" parent="mwRrv51llNrriN64F0ap-4" vertex="1">
          <mxGeometry x="368" y="209" width="43" height="43" as="geometry" />
        </mxCell>
        <mxCell id="mwRrv51llNrriN64F0ap-21" style="edgeStyle=orthogonalEdgeStyle;rounded=0;orthogonalLoop=1;jettySize=auto;html=1;" parent="mwRrv51llNrriN64F0ap-2" edge="1">
          <mxGeometry relative="1" as="geometry">
            <mxPoint x="62" y="228" as="sourcePoint" />
            <mxPoint x="156.54347310847766" y="153" as="targetPoint" />
            <Array as="points">
              <mxPoint x="107" y="228" />
              <mxPoint x="107" y="153" />
            </Array>
          </mxGeometry>
        </mxCell>
        <mxCell id="mwRrv51llNrriN64F0ap-23" style="edgeStyle=orthogonalEdgeStyle;rounded=0;orthogonalLoop=1;jettySize=auto;html=1;entryX=0;entryY=0.5;entryDx=0;entryDy=0;entryPerimeter=0;" parent="mwRrv51llNrriN64F0ap-2" edge="1">
          <mxGeometry relative="1" as="geometry">
            <mxPoint x="62" y="228" as="sourcePoint" />
            <mxPoint x="158.53999999999996" y="297" as="targetPoint" />
            <Array as="points">
              <mxPoint x="107" y="228" />
              <mxPoint x="107" y="297" />
            </Array>
          </mxGeometry>
        </mxCell>
        <mxCell id="mwRrv51llNrriN64F0ap-24" style="edgeStyle=orthogonalEdgeStyle;rounded=0;orthogonalLoop=1;jettySize=auto;html=1;entryX=0;entryY=0.5;entryDx=0;entryDy=0;entryPerimeter=0;" parent="mwRrv51llNrriN64F0ap-2" source="mwRrv51llNrriN64F0ap-12" target="mwRrv51llNrriN64F0ap-7" edge="1">
          <mxGeometry relative="1" as="geometry" />
        </mxCell>
        <mxCell id="mwRrv51llNrriN64F0ap-12" value="cloudfront" style="sketch=0;points=[[0,0,0],[0.25,0,0],[0.5,0,0],[0.75,0,0],[1,0,0],[0,1,0],[0.25,1,0],[0.5,1,0],[0.75,1,0],[1,1,0],[0,0.25,0],[0,0.5,0],[0,0.75,0],[1,0.25,0],[1,0.5,0],[1,0.75,0]];outlineConnect=0;fontColor=#232F3E;gradientColor=#945DF2;gradientDirection=north;fillColor=#5A30B5;strokeColor=#ffffff;dashed=0;verticalLabelPosition=bottom;verticalAlign=top;align=center;html=1;fontSize=12;fontStyle=0;aspect=fixed;shape=mxgraph.aws4.resourceIcon;resIcon=mxgraph.aws4.cloudfront;" parent="mwRrv51llNrriN64F0ap-2" vertex="1">
          <mxGeometry x="22" y="208" width="40" height="40" as="geometry" />
        </mxCell>
        <mxCell id="mwRrv51llNrriN64F0ap-11" value="route53&amp;nbsp;&lt;br&gt;DNS" style="sketch=0;points=[[0,0,0],[0.25,0,0],[0.5,0,0],[0.75,0,0],[1,0,0],[0,1,0],[0.25,1,0],[0.5,1,0],[0.75,1,0],[1,1,0],[0,0.25,0],[0,0.5,0],[0,0.75,0],[1,0.25,0],[1,0.5,0],[1,0.75,0]];outlineConnect=0;fontColor=#232F3E;gradientColor=#945DF2;gradientDirection=north;fillColor=#5A30B5;strokeColor=#ffffff;dashed=0;verticalLabelPosition=bottom;verticalAlign=top;align=center;html=1;fontSize=12;fontStyle=0;aspect=fixed;shape=mxgraph.aws4.resourceIcon;resIcon=mxgraph.aws4.route_53;" parent="mwRrv51llNrriN64F0ap-2" vertex="1">
          <mxGeometry x="20" y="100" width="44" height="44" as="geometry" />
        </mxCell>
        <mxCell id="mwRrv51llNrriN64F0ap-31" value="WAF &lt;br&gt;rules" style="sketch=0;points=[[0,0,0],[0.25,0,0],[0.5,0,0],[0.75,0,0],[1,0,0],[0,1,0],[0.25,1,0],[0.5,1,0],[0.75,1,0],[1,1,0],[0,0.25,0],[0,0.5,0],[0,0.75,0],[1,0.25,0],[1,0.5,0],[1,0.75,0]];outlineConnect=0;fontColor=#232F3E;gradientColor=#F54749;gradientDirection=north;fillColor=#C7131F;strokeColor=#ffffff;dashed=0;verticalLabelPosition=bottom;verticalAlign=top;align=center;html=1;fontSize=12;fontStyle=0;aspect=fixed;shape=mxgraph.aws4.resourceIcon;resIcon=mxgraph.aws4.waf;" parent="mwRrv51llNrriN64F0ap-2" vertex="1">
          <mxGeometry x="21" y="300" width="40" height="40" as="geometry" />
        </mxCell>
        <mxCell id="mwRrv51llNrriN64F0ap-14" style="edgeStyle=orthogonalEdgeStyle;rounded=0;orthogonalLoop=1;jettySize=auto;html=1;entryX=0;entryY=0.5;entryDx=0;entryDy=0;entryPerimeter=0;" parent="1" edge="1">
          <mxGeometry relative="1" as="geometry">
            <mxPoint x="100" y="298" as="sourcePoint" />
            <mxPoint x="213" y="195" as="targetPoint" />
            <Array as="points">
              <mxPoint x="160" y="298" />
              <mxPoint x="160" y="195" />
            </Array>
          </mxGeometry>
        </mxCell>
        <mxCell id="mwRrv51llNrriN64F0ap-15" style="edgeStyle=orthogonalEdgeStyle;rounded=0;orthogonalLoop=1;jettySize=auto;html=1;" parent="1" source="mwRrv51llNrriN64F0ap-13" target="mwRrv51llNrriN64F0ap-12" edge="1">
          <mxGeometry relative="1" as="geometry" />
        </mxCell>
        <mxCell id="mwRrv51llNrriN64F0ap-35" style="edgeStyle=orthogonalEdgeStyle;rounded=0;orthogonalLoop=1;jettySize=auto;html=1;entryX=0;entryY=0.5;entryDx=0;entryDy=0;entryPerimeter=0;" parent="1" edge="1">
          <mxGeometry relative="1" as="geometry">
            <mxPoint x="100" y="298" as="sourcePoint" />
            <mxPoint x="337" y="453" as="targetPoint" />
            <Array as="points">
              <mxPoint x="160" y="298" />
              <mxPoint x="160" y="453" />
            </Array>
          </mxGeometry>
        </mxCell>
        <mxCell id="mwRrv51llNrriN64F0ap-13" value="" style="sketch=0;aspect=fixed;pointerEvents=1;shadow=0;dashed=0;html=1;strokeColor=none;labelPosition=center;verticalLabelPosition=bottom;verticalAlign=top;align=center;fillColor=#00188D;shape=mxgraph.azure.laptop" parent="1" vertex="1">
          <mxGeometry x="50" y="283" width="50" height="30" as="geometry" />
        </mxCell>
        <mxCell id="mwRrv51llNrriN64F0ap-33" value="" style="endArrow=classic;html=1;rounded=0;" parent="1" edge="1">
          <mxGeometry width="50" height="50" relative="1" as="geometry">
            <mxPoint x="229" y="365" as="sourcePoint" />
            <mxPoint x="229" y="335" as="targetPoint" />
          </mxGeometry>
        </mxCell>
        <mxCell id="mwRrv51llNrriN64F0ap-34" value="" style="endArrow=classic;html=1;rounded=0;" parent="1" edge="1">
          <mxGeometry width="50" height="50" relative="1" as="geometry">
            <mxPoint x="239" y="337" as="sourcePoint" />
            <mxPoint x="240" y="367" as="targetPoint" />
          </mxGeometry>
        </mxCell>
      </root>
    </mxGraphModel>
  </diagram>
  <diagram id="AiJOluaEvhhSrYeXvPe_" name="secure">
    <mxGraphModel dx="782" dy="389" grid="1" gridSize="10" guides="1" tooltips="1" connect="1" arrows="1" fold="1" page="1" pageScale="1" pageWidth="827" pageHeight="1169" math="0" shadow="0">
      <root>
        <mxCell id="XyIqBynNa2bsp_8kiUHq-0" />
        <mxCell id="XyIqBynNa2bsp_8kiUHq-1" parent="XyIqBynNa2bsp_8kiUHq-0" />
        <mxCell id="XyIqBynNa2bsp_8kiUHq-15" value="Corporate group LAN" style="points=[[0,0],[0.25,0],[0.5,0],[0.75,0],[1,0],[1,0.25],[1,0.5],[1,0.75],[1,1],[0.75,1],[0.5,1],[0.25,1],[0,1],[0,0.75],[0,0.5],[0,0.25]];outlineConnect=0;gradientColor=none;html=1;whiteSpace=wrap;fontSize=12;fontStyle=0;container=1;pointerEvents=0;collapsible=0;recursiveResize=0;shape=mxgraph.aws4.group;grIcon=mxgraph.aws4.group_corporate_data_center;strokeColor=#5A6C86;fillColor=none;verticalAlign=top;align=left;spacingLeft=30;fontColor=#5A6C86;dashed=0;" parent="XyIqBynNa2bsp_8kiUHq-1" vertex="1">
          <mxGeometry x="40" y="436" width="760" height="130" as="geometry" />
        </mxCell>
        <mxCell id="XyIqBynNa2bsp_8kiUHq-45" value="&lt;font color=&quot;#000000&quot;&gt;Client &lt;br&gt;browser&lt;/font&gt;" style="sketch=0;pointerEvents=1;shadow=0;dashed=0;html=1;strokeColor=none;fillColor=#434445;aspect=fixed;labelPosition=center;verticalLabelPosition=bottom;verticalAlign=top;align=center;outlineConnect=0;shape=mxgraph.vvd.web_browser;fontSize=10;fontColor=#6600CC;" parent="XyIqBynNa2bsp_8kiUHq-15" vertex="1">
          <mxGeometry x="372" y="34" width="50" height="35.5" as="geometry" />
        </mxCell>
        <mxCell id="XyIqBynNa2bsp_8kiUHq-2" value="AWS Cloud" style="points=[[0,0],[0.25,0],[0.5,0],[0.75,0],[1,0],[1,0.25],[1,0.5],[1,0.75],[1,1],[0.75,1],[0.5,1],[0.25,1],[0,1],[0,0.75],[0,0.5],[0,0.25]];outlineConnect=0;gradientColor=none;html=1;whiteSpace=wrap;fontSize=12;fontStyle=0;container=1;pointerEvents=0;collapsible=0;recursiveResize=0;shape=mxgraph.aws4.group;grIcon=mxgraph.aws4.group_aws_cloud_alt;strokeColor=#232F3E;fillColor=none;verticalAlign=top;align=left;spacingLeft=30;fontColor=#232F3E;dashed=0;" parent="XyIqBynNa2bsp_8kiUHq-1" vertex="1">
          <mxGeometry x="40" y="50" width="760" height="370" as="geometry" />
        </mxCell>
        <mxCell id="XyIqBynNa2bsp_8kiUHq-3" value="" style="fillColor=#dae8fc;strokeColor=#6c8ebf;dashed=0;verticalAlign=top;fontStyle=1;fontColor=#0000FF;" parent="XyIqBynNa2bsp_8kiUHq-2" vertex="1">
          <mxGeometry x="610" y="10" width="130" height="200" as="geometry" />
        </mxCell>
        <mxCell id="XyIqBynNa2bsp_8kiUHq-4" value="VPC" style="points=[[0,0],[0.25,0],[0.5,0],[0.75,0],[1,0],[1,0.25],[1,0.5],[1,0.75],[1,1],[0.75,1],[0.5,1],[0.25,1],[0,1],[0,0.75],[0,0.5],[0,0.25]];outlineConnect=0;gradientColor=none;html=1;whiteSpace=wrap;fontSize=12;fontStyle=0;container=1;pointerEvents=0;collapsible=0;recursiveResize=0;shape=mxgraph.aws4.group;grIcon=mxgraph.aws4.group_vpc;strokeColor=#248814;fillColor=none;verticalAlign=top;align=left;spacingLeft=30;fontColor=#AAB7B8;dashed=0;" parent="XyIqBynNa2bsp_8kiUHq-2" vertex="1">
          <mxGeometry x="174" y="33" width="410" height="260" as="geometry" />
        </mxCell>
        <mxCell id="XyIqBynNa2bsp_8kiUHq-5" value="Private subnet AZ a" style="points=[[0,0],[0.25,0],[0.5,0],[0.75,0],[1,0],[1,0.25],[1,0.5],[1,0.75],[1,1],[0.75,1],[0.5,1],[0.25,1],[0,1],[0,0.75],[0,0.5],[0,0.25]];outlineConnect=0;gradientColor=none;html=1;whiteSpace=wrap;fontSize=12;fontStyle=0;container=1;pointerEvents=0;collapsible=0;recursiveResize=0;shape=mxgraph.aws4.group;grIcon=mxgraph.aws4.group_security_group;grStroke=0;strokeColor=#147EBA;fillColor=#E6F2F8;verticalAlign=top;align=left;spacingLeft=30;fontColor=#147EBA;dashed=0;" parent="XyIqBynNa2bsp_8kiUHq-4" vertex="1">
          <mxGeometry x="32" y="27" width="230" height="92" as="geometry" />
        </mxCell>
        <mxCell id="XyIqBynNa2bsp_8kiUHq-29" style="edgeStyle=orthogonalEdgeStyle;rounded=0;orthogonalLoop=1;jettySize=auto;html=1;fontSize=10;fontColor=#4C0099;strokeColor=#FF8000;strokeWidth=2;" parent="XyIqBynNa2bsp_8kiUHq-5" source="XyIqBynNa2bsp_8kiUHq-10" target="XyIqBynNa2bsp_8kiUHq-14" edge="1">
          <mxGeometry relative="1" as="geometry" />
        </mxCell>
        <mxCell id="XyIqBynNa2bsp_8kiUHq-10" value="&lt;font color=&quot;#4c0099&quot;&gt;ENI&lt;/font&gt;" style="sketch=0;outlineConnect=0;fontColor=#232F3E;gradientColor=none;fillColor=#4D27AA;strokeColor=none;dashed=0;verticalLabelPosition=bottom;verticalAlign=top;align=center;html=1;fontSize=12;fontStyle=0;aspect=fixed;pointerEvents=1;shape=mxgraph.aws4.elastic_network_interface;" parent="XyIqBynNa2bsp_8kiUHq-5" vertex="1">
          <mxGeometry x="158" y="31" width="38" height="38" as="geometry" />
        </mxCell>
        <mxCell id="XyIqBynNa2bsp_8kiUHq-14" value="&lt;font color=&quot;#4c0099&quot;&gt;vpc endpoint&lt;/font&gt;" style="sketch=0;outlineConnect=0;fontColor=#232F3E;gradientColor=none;fillColor=#4D27AA;strokeColor=none;dashed=0;verticalLabelPosition=bottom;verticalAlign=top;align=center;html=1;fontSize=12;fontStyle=0;aspect=fixed;pointerEvents=1;shape=mxgraph.aws4.endpoints;" parent="XyIqBynNa2bsp_8kiUHq-5" vertex="1">
          <mxGeometry x="28" y="30" width="40" height="40" as="geometry" />
        </mxCell>
        <mxCell id="XyIqBynNa2bsp_8kiUHq-36" value="&lt;b&gt;&lt;font color=&quot;#ff8000&quot;&gt;HTTPS&lt;/font&gt;&lt;/b&gt;" style="text;html=1;strokeColor=none;fillColor=none;align=center;verticalAlign=middle;whiteSpace=wrap;rounded=0;fontSize=10;fontColor=#FF0000;" parent="XyIqBynNa2bsp_8kiUHq-5" vertex="1">
          <mxGeometry x="90" y="25" width="60" height="30" as="geometry" />
        </mxCell>
        <mxCell id="XyIqBynNa2bsp_8kiUHq-6" value="Private subnet AZ b" style="points=[[0,0],[0.25,0],[0.5,0],[0.75,0],[1,0],[1,0.25],[1,0.5],[1,0.75],[1,1],[0.75,1],[0.5,1],[0.25,1],[0,1],[0,0.75],[0,0.5],[0,0.25]];outlineConnect=0;gradientColor=none;html=1;whiteSpace=wrap;fontSize=12;fontStyle=0;container=1;pointerEvents=0;collapsible=0;recursiveResize=0;shape=mxgraph.aws4.group;grIcon=mxgraph.aws4.group_security_group;grStroke=0;strokeColor=#147EBA;fillColor=#E6F2F8;verticalAlign=top;align=left;spacingLeft=30;fontColor=#147EBA;dashed=0;" parent="XyIqBynNa2bsp_8kiUHq-4" vertex="1">
          <mxGeometry x="32" y="132" width="230" height="98" as="geometry" />
        </mxCell>
        <mxCell id="XyIqBynNa2bsp_8kiUHq-30" style="edgeStyle=orthogonalEdgeStyle;rounded=0;orthogonalLoop=1;jettySize=auto;html=1;fontSize=10;fontColor=#4C0099;strokeColor=#FF8000;strokeWidth=2;" parent="XyIqBynNa2bsp_8kiUHq-6" source="XyIqBynNa2bsp_8kiUHq-11" target="XyIqBynNa2bsp_8kiUHq-13" edge="1">
          <mxGeometry relative="1" as="geometry" />
        </mxCell>
        <mxCell id="XyIqBynNa2bsp_8kiUHq-11" value="&lt;font color=&quot;#4c0099&quot;&gt;ENI&lt;/font&gt;" style="sketch=0;outlineConnect=0;fontColor=#232F3E;gradientColor=none;fillColor=#4D27AA;strokeColor=none;dashed=0;verticalLabelPosition=bottom;verticalAlign=top;align=center;html=1;fontSize=12;fontStyle=0;aspect=fixed;pointerEvents=1;shape=mxgraph.aws4.elastic_network_interface;" parent="XyIqBynNa2bsp_8kiUHq-6" vertex="1">
          <mxGeometry x="158" y="30" width="38" height="38" as="geometry" />
        </mxCell>
        <mxCell id="XyIqBynNa2bsp_8kiUHq-13" value="&lt;font color=&quot;#4c0099&quot;&gt;vpc endpoint&lt;/font&gt;" style="sketch=0;outlineConnect=0;fontColor=#232F3E;gradientColor=none;fillColor=#4D27AA;strokeColor=none;dashed=0;verticalLabelPosition=bottom;verticalAlign=top;align=center;html=1;fontSize=12;fontStyle=0;aspect=fixed;pointerEvents=1;shape=mxgraph.aws4.endpoints;" parent="XyIqBynNa2bsp_8kiUHq-6" vertex="1">
          <mxGeometry x="30" y="30" width="38" height="38" as="geometry" />
        </mxCell>
        <mxCell id="XyIqBynNa2bsp_8kiUHq-37" value="&lt;b&gt;&lt;font color=&quot;#ff8000&quot;&gt;HTTPS&lt;/font&gt;&lt;/b&gt;" style="text;html=1;strokeColor=none;fillColor=none;align=center;verticalAlign=middle;whiteSpace=wrap;rounded=0;fontSize=10;fontColor=#FF0000;" parent="XyIqBynNa2bsp_8kiUHq-6" vertex="1">
          <mxGeometry x="93" y="25" width="60" height="30" as="geometry" />
        </mxCell>
        <mxCell id="XyIqBynNa2bsp_8kiUHq-25" style="edgeStyle=orthogonalEdgeStyle;rounded=0;orthogonalLoop=1;jettySize=auto;html=1;fontSize=10;fontColor=#4C0099;strokeColor=#FF0000;strokeWidth=2;" parent="XyIqBynNa2bsp_8kiUHq-4" source="XyIqBynNa2bsp_8kiUHq-16" target="XyIqBynNa2bsp_8kiUHq-19" edge="1">
          <mxGeometry relative="1" as="geometry" />
        </mxCell>
        <mxCell id="XyIqBynNa2bsp_8kiUHq-16" value="" style="sketch=0;points=[[0,0,0],[0.25,0,0],[0.5,0,0],[0.75,0,0],[1,0,0],[0,1,0],[0.25,1,0],[0.5,1,0],[0.75,1,0],[1,1,0],[0,0.25,0],[0,0.5,0],[0,0.75,0],[1,0.25,0],[1,0.5,0],[1,0.75,0]];outlineConnect=0;fontColor=#232F3E;gradientColor=#F54749;gradientDirection=north;fillColor=#C7131F;strokeColor=#ffffff;dashed=0;verticalLabelPosition=bottom;verticalAlign=top;align=center;html=1;fontSize=12;fontStyle=0;aspect=fixed;shape=mxgraph.aws4.resourceIcon;resIcon=mxgraph.aws4.certificate_manager_3;" parent="XyIqBynNa2bsp_8kiUHq-4" vertex="1">
          <mxGeometry x="311" y="58" width="30" height="30" as="geometry" />
        </mxCell>
        <mxCell id="XyIqBynNa2bsp_8kiUHq-27" style="edgeStyle=orthogonalEdgeStyle;rounded=0;orthogonalLoop=1;jettySize=auto;html=1;fontSize=10;fontColor=#4C0099;strokeColor=#6600CC;strokeWidth=2;" parent="XyIqBynNa2bsp_8kiUHq-4" source="XyIqBynNa2bsp_8kiUHq-19" target="XyIqBynNa2bsp_8kiUHq-10" edge="1">
          <mxGeometry relative="1" as="geometry">
            <Array as="points">
              <mxPoint x="286" y="138" />
              <mxPoint x="286" y="77" />
            </Array>
          </mxGeometry>
        </mxCell>
        <mxCell id="XyIqBynNa2bsp_8kiUHq-28" style="edgeStyle=orthogonalEdgeStyle;rounded=0;orthogonalLoop=1;jettySize=auto;html=1;fontSize=10;fontColor=#4C0099;strokeColor=#6600CC;strokeWidth=2;" parent="XyIqBynNa2bsp_8kiUHq-4" source="XyIqBynNa2bsp_8kiUHq-19" target="XyIqBynNa2bsp_8kiUHq-11" edge="1">
          <mxGeometry relative="1" as="geometry">
            <Array as="points">
              <mxPoint x="286" y="138" />
              <mxPoint x="286" y="181" />
            </Array>
          </mxGeometry>
        </mxCell>
        <mxCell id="XyIqBynNa2bsp_8kiUHq-19" value="&lt;font color=&quot;#4c0099&quot;&gt;Internal ALB&lt;/font&gt;" style="sketch=0;outlineConnect=0;fontColor=#232F3E;gradientColor=none;fillColor=#4D27AA;strokeColor=none;dashed=0;verticalLabelPosition=bottom;verticalAlign=top;align=center;html=1;fontSize=12;fontStyle=0;aspect=fixed;pointerEvents=1;shape=mxgraph.aws4.application_load_balancer;" parent="XyIqBynNa2bsp_8kiUHq-4" vertex="1">
          <mxGeometry x="307" y="119" width="38" height="38" as="geometry" />
        </mxCell>
        <mxCell id="XyIqBynNa2bsp_8kiUHq-35" value="Custom domain certificates" style="text;html=1;strokeColor=none;fillColor=none;align=center;verticalAlign=middle;whiteSpace=wrap;rounded=0;fontSize=10;fontColor=#FF0000;" parent="XyIqBynNa2bsp_8kiUHq-4" vertex="1">
          <mxGeometry x="293" y="24" width="66" height="30" as="geometry" />
        </mxCell>
        <mxCell id="XyIqBynNa2bsp_8kiUHq-7" value="" style="sketch=0;points=[[0,0,0],[0.25,0,0],[0.5,0,0],[0.75,0,0],[1,0,0],[0,1,0],[0.25,1,0],[0.5,1,0],[0.75,1,0],[1,1,0],[0,0.25,0],[0,0.5,0],[0,0.75,0],[1,0.25,0],[1,0.5,0],[1,0.75,0]];outlineConnect=0;fontColor=#232F3E;gradientColor=#945DF2;gradientDirection=north;fillColor=#5A30B5;strokeColor=#ffffff;dashed=0;verticalLabelPosition=bottom;verticalAlign=top;align=center;html=1;fontSize=12;fontStyle=0;aspect=fixed;shape=mxgraph.aws4.resourceIcon;resIcon=mxgraph.aws4.route_53;" parent="XyIqBynNa2bsp_8kiUHq-2" vertex="1">
          <mxGeometry x="649" y="40" width="47" height="47" as="geometry" />
        </mxCell>
        <mxCell id="XyIqBynNa2bsp_8kiUHq-26" value="" style="edgeStyle=orthogonalEdgeStyle;rounded=0;orthogonalLoop=1;jettySize=auto;html=1;fontSize=10;fontColor=#4C0099;strokeColor=#FF0000;strokeWidth=2;" parent="XyIqBynNa2bsp_8kiUHq-2" source="XyIqBynNa2bsp_8kiUHq-17" target="XyIqBynNa2bsp_8kiUHq-18" edge="1">
          <mxGeometry relative="1" as="geometry" />
        </mxCell>
        <mxCell id="XyIqBynNa2bsp_8kiUHq-17" value="" style="sketch=0;points=[[0,0,0],[0.25,0,0],[0.5,0,0],[0.75,0,0],[1,0,0],[0,1,0],[0.25,1,0],[0.5,1,0],[0.75,1,0],[1,1,0],[0,0.25,0],[0,0.5,0],[0,0.75,0],[1,0.25,0],[1,0.5,0],[1,0.75,0]];outlineConnect=0;fontColor=#232F3E;gradientColor=#F54749;gradientDirection=north;fillColor=#C7131F;strokeColor=#ffffff;dashed=0;verticalLabelPosition=bottom;verticalAlign=top;align=center;html=1;fontSize=12;fontStyle=0;aspect=fixed;shape=mxgraph.aws4.resourceIcon;resIcon=mxgraph.aws4.certificate_manager_3;" parent="XyIqBynNa2bsp_8kiUHq-2" vertex="1">
          <mxGeometry x="104" y="87" width="30" height="30" as="geometry" />
        </mxCell>
        <mxCell id="XyIqBynNa2bsp_8kiUHq-32" style="edgeStyle=orthogonalEdgeStyle;rounded=0;orthogonalLoop=1;jettySize=auto;html=1;fontSize=10;fontColor=#4C0099;strokeColor=#FF8000;strokeWidth=2;" parent="XyIqBynNa2bsp_8kiUHq-2" source="XyIqBynNa2bsp_8kiUHq-18" target="XyIqBynNa2bsp_8kiUHq-31" edge="1">
          <mxGeometry relative="1" as="geometry" />
        </mxCell>
        <mxCell id="XyIqBynNa2bsp_8kiUHq-18" value="" style="sketch=0;points=[[0,0,0],[0.25,0,0],[0.5,0,0],[0.75,0,0],[1,0,0],[0,1,0],[0.25,1,0],[0.5,1,0],[0.75,1,0],[1,1,0],[0,0.25,0],[0,0.5,0],[0,0.75,0],[1,0.25,0],[1,0.5,0],[1,0.75,0]];outlineConnect=0;fontColor=#232F3E;gradientColor=#945DF2;gradientDirection=north;fillColor=#5A30B5;strokeColor=#ffffff;dashed=0;verticalLabelPosition=bottom;verticalAlign=top;align=center;html=1;fontSize=12;fontStyle=0;aspect=fixed;shape=mxgraph.aws4.resourceIcon;resIcon=mxgraph.aws4.api_gateway;" parent="XyIqBynNa2bsp_8kiUHq-2" vertex="1">
          <mxGeometry x="94" y="144" width="48" height="48" as="geometry" />
        </mxCell>
        <mxCell id="XyIqBynNa2bsp_8kiUHq-12" value="" style="sketch=0;points=[[0,0,0],[0.25,0,0],[0.5,0,0],[0.75,0,0],[1,0,0],[0,1,0],[0.25,1,0],[0.5,1,0],[0.75,1,0],[1,1,0],[0,0.25,0],[0,0.5,0],[0,0.75,0],[1,0.25,0],[1,0.5,0],[1,0.75,0]];outlineConnect=0;fontColor=#232F3E;gradientColor=#945DF2;gradientDirection=north;fillColor=#5A30B5;strokeColor=#ffffff;dashed=0;verticalLabelPosition=bottom;verticalAlign=top;align=center;html=1;fontSize=12;fontStyle=0;aspect=fixed;shape=mxgraph.aws4.resourceIcon;resIcon=mxgraph.aws4.direct_connect;" parent="XyIqBynNa2bsp_8kiUHq-2" vertex="1">
          <mxGeometry x="530" y="334" width="60" height="60" as="geometry" />
        </mxCell>
        <mxCell id="XyIqBynNa2bsp_8kiUHq-23" style="edgeStyle=orthogonalEdgeStyle;rounded=0;orthogonalLoop=1;jettySize=auto;html=1;fontSize=10;fontColor=#FFFFFF;strokeColor=#FF8000;strokeWidth=2;" parent="XyIqBynNa2bsp_8kiUHq-2" target="XyIqBynNa2bsp_8kiUHq-19" edge="1">
          <mxGeometry relative="1" as="geometry">
            <mxPoint x="543.5" y="284.25" as="sourcePoint" />
            <Array as="points">
              <mxPoint x="544" y="171" />
            </Array>
          </mxGeometry>
        </mxCell>
        <mxCell id="XyIqBynNa2bsp_8kiUHq-31" value="" style="sketch=0;outlineConnect=0;fontColor=#232F3E;gradientColor=none;fillColor=#D45B07;strokeColor=none;dashed=0;verticalLabelPosition=bottom;verticalAlign=top;align=center;html=1;fontSize=12;fontStyle=0;aspect=fixed;pointerEvents=1;shape=mxgraph.aws4.lambda_function;" parent="XyIqBynNa2bsp_8kiUHq-2" vertex="1">
          <mxGeometry x="98" y="230" width="40" height="40" as="geometry" />
        </mxCell>
        <mxCell id="XyIqBynNa2bsp_8kiUHq-33" value="Private API Gateway" style="text;html=1;strokeColor=none;fillColor=none;align=center;verticalAlign=middle;whiteSpace=wrap;rounded=0;fontSize=10;fontColor=#4C0099;" parent="XyIqBynNa2bsp_8kiUHq-2" vertex="1">
          <mxGeometry x="8" y="153" width="90" height="30" as="geometry" />
        </mxCell>
        <mxCell id="XyIqBynNa2bsp_8kiUHq-34" value="Custom domain certificates" style="text;html=1;strokeColor=none;fillColor=none;align=center;verticalAlign=middle;whiteSpace=wrap;rounded=0;fontSize=10;fontColor=#FF0000;" parent="XyIqBynNa2bsp_8kiUHq-2" vertex="1">
          <mxGeometry x="85" y="48.5" width="66" height="30" as="geometry" />
        </mxCell>
        <mxCell id="XyIqBynNa2bsp_8kiUHq-38" value="&lt;font color=&quot;#6600cc&quot;&gt;Private hosted zone&lt;/font&gt;" style="text;html=1;strokeColor=none;fillColor=none;align=center;verticalAlign=middle;whiteSpace=wrap;rounded=0;fontSize=10;fontColor=#FF8000;" parent="XyIqBynNa2bsp_8kiUHq-2" vertex="1">
          <mxGeometry x="623.75" y="95" width="102.5" height="30" as="geometry" />
        </mxCell>
        <mxCell id="XyIqBynNa2bsp_8kiUHq-39" value="cognito user pool" style="sketch=0;points=[[0,0,0],[0.25,0,0],[0.5,0,0],[0.75,0,0],[1,0,0],[0,1,0],[0.25,1,0],[0.5,1,0],[0.75,1,0],[1,1,0],[0,0.25,0],[0,0.5,0],[0,0.75,0],[1,0.25,0],[1,0.5,0],[1,0.75,0]];outlineConnect=0;fontColor=#232F3E;gradientColor=#F54749;gradientDirection=north;fillColor=#C7131F;strokeColor=#ffffff;dashed=0;verticalLabelPosition=bottom;verticalAlign=top;align=center;html=1;fontSize=12;fontStyle=0;aspect=fixed;shape=mxgraph.aws4.resourceIcon;resIcon=mxgraph.aws4.cognito;" parent="XyIqBynNa2bsp_8kiUHq-2" vertex="1">
          <mxGeometry x="660" y="243.75" width="51.5" height="51.5" as="geometry" />
        </mxCell>
        <mxCell id="XyIqBynNa2bsp_8kiUHq-40" value="VPN &lt;br&gt;connection" style="sketch=0;outlineConnect=0;fontColor=#232F3E;gradientColor=none;fillColor=#4D27AA;strokeColor=none;dashed=0;verticalLabelPosition=bottom;verticalAlign=top;align=center;html=1;fontSize=12;fontStyle=0;aspect=fixed;pointerEvents=1;shape=mxgraph.aws4.vpn_connection;" parent="XyIqBynNa2bsp_8kiUHq-2" vertex="1">
          <mxGeometry x="482" y="298" width="29.62" height="33" as="geometry" />
        </mxCell>
        <mxCell id="XyIqBynNa2bsp_8kiUHq-41" value="" style="sketch=0;pointerEvents=1;shadow=0;dashed=0;html=1;strokeColor=none;fillColor=#6600CC;labelPosition=center;verticalLabelPosition=bottom;verticalAlign=top;outlineConnect=0;align=center;shape=mxgraph.office.servers.tunnel_straight;fontSize=10;fontColor=#6600CC;rotation=90;opacity=70;" parent="XyIqBynNa2bsp_8kiUHq-2" vertex="1">
          <mxGeometry x="485.25" y="343.25" width="118" height="14.5" as="geometry" />
        </mxCell>
        <mxCell id="XyIqBynNa2bsp_8kiUHq-43" style="edgeStyle=orthogonalEdgeStyle;rounded=0;orthogonalLoop=1;jettySize=auto;html=1;entryX=1;entryY=0.5;entryDx=0;entryDy=0;entryPerimeter=0;fontSize=10;fontColor=#6600CC;strokeColor=#FF8000;strokeWidth=2;" parent="XyIqBynNa2bsp_8kiUHq-2" source="XyIqBynNa2bsp_8kiUHq-14" target="XyIqBynNa2bsp_8kiUHq-18" edge="1">
          <mxGeometry relative="1" as="geometry" />
        </mxCell>
        <mxCell id="XyIqBynNa2bsp_8kiUHq-44" style="edgeStyle=orthogonalEdgeStyle;rounded=0;orthogonalLoop=1;jettySize=auto;html=1;entryX=1;entryY=0.5;entryDx=0;entryDy=0;entryPerimeter=0;fontSize=10;fontColor=#6600CC;strokeColor=#FF8000;strokeWidth=2;endArrow=none;endFill=0;" parent="XyIqBynNa2bsp_8kiUHq-2" edge="1">
          <mxGeometry relative="1" as="geometry">
            <mxPoint x="234" y="215" as="sourcePoint" />
            <mxPoint x="140" y="169" as="targetPoint" />
            <Array as="points">
              <mxPoint x="188" y="215" />
              <mxPoint x="188" y="169" />
            </Array>
          </mxGeometry>
        </mxCell>
        <mxCell id="XyIqBynNa2bsp_8kiUHq-50" value="DNS" style="text;html=1;strokeColor=none;fillColor=none;align=center;verticalAlign=middle;whiteSpace=wrap;rounded=0;fontSize=10;fontColor=#00CC00;rotation=-90;" parent="XyIqBynNa2bsp_8kiUHq-2" vertex="1">
          <mxGeometry x="602" y="320" width="60" height="30" as="geometry" />
        </mxCell>
        <mxCell id="glVly--RYXNzCW5vtoCO-0" value="Single lambda&lt;br&gt;Backend API&amp;nbsp;" style="text;html=1;strokeColor=none;fillColor=none;align=center;verticalAlign=middle;whiteSpace=wrap;rounded=0;" parent="XyIqBynNa2bsp_8kiUHq-2" vertex="1">
          <mxGeometry x="75" y="280" width="88" height="30" as="geometry" />
        </mxCell>
        <mxCell id="glVly--RYXNzCW5vtoCO-1" value="&lt;b&gt;&lt;font style=&quot;font-size: 13px&quot;&gt;alias: live&lt;/font&gt;&lt;/b&gt;" style="text;html=1;strokeColor=none;fillColor=none;align=center;verticalAlign=middle;whiteSpace=wrap;rounded=0;" parent="XyIqBynNa2bsp_8kiUHq-2" vertex="1">
          <mxGeometry x="21" y="235" width="73" height="30" as="geometry" />
        </mxCell>
        <mxCell id="XyIqBynNa2bsp_8kiUHq-46" style="edgeStyle=orthogonalEdgeStyle;rounded=0;orthogonalLoop=1;jettySize=auto;html=1;fontSize=10;fontColor=#000000;endArrow=none;endFill=0;strokeColor=#FF8000;strokeWidth=2;" parent="XyIqBynNa2bsp_8kiUHq-1" edge="1">
          <mxGeometry relative="1" as="geometry">
            <mxPoint x="463" y="488.79999999999995" as="sourcePoint" />
            <mxPoint x="583.2837915234823" y="460.5" as="targetPoint" />
          </mxGeometry>
        </mxCell>
        <mxCell id="XyIqBynNa2bsp_8kiUHq-48" style="edgeStyle=orthogonalEdgeStyle;rounded=0;orthogonalLoop=1;jettySize=auto;html=1;fontSize=10;fontColor=#000000;endArrow=classic;endFill=1;strokeColor=#00CC00;strokeWidth=2;entryX=0.072;entryY=1.007;entryDx=0;entryDy=0;entryPerimeter=0;" parent="XyIqBynNa2bsp_8kiUHq-1" target="XyIqBynNa2bsp_8kiUHq-3" edge="1">
          <mxGeometry relative="1" as="geometry">
            <mxPoint x="464" y="497.79999999999995" as="sourcePoint" />
            <mxPoint x="659" y="283" as="targetPoint" />
          </mxGeometry>
        </mxCell>
      </root>
    </mxGraphModel>
  </diagram>
</mxfile>
